HIERARCHY
ROOT Hips
{
	OFFSET 0.000000 121.760803 0.000000
	CHANNELS 6 Xposition Yposition Zposition Xrotation Yrotation Zrotation 
	JOINT Spine
	{
		OFFSET 0.072000 7.257294 -0.789700
		CHANNELS 3 Xrotation Yrotation Zrotation
		JOINT Spine1
		{
			OFFSET 0.000000 12.508769 -0.658067
			CHANNELS 3 Xrotation Yrotation Zrotation
			JOINT Spine1_split
			{
				OFFSET 0.000000 12.508769 -0.658067
				CHANNELS 3 Xrotation Yrotation Zrotation
				JOINT Spine2
				{
					OFFSET 0.000000 12.508769 -0.658067
					CHANNELS 3 Xrotation Yrotation Zrotation
					JOINT Neck
					{
						OFFSET 0.000000 14.033295 7.520400
						CHANNELS 3 Xrotation Yrotation Zrotation
						JOINT Head
						{
							OFFSET 0.000000 8.198502 5.703100
							CHANNELS 3 Xrotation Yrotation Zrotation
							JOINT HeadTop_End
							{
								OFFSET 0.000000 17.760803 13.332701
								CHANNELS 3 Xrotation Yrotation Zrotation
								End Site
								{
									OFFSET 0.000000 0.000000 0.000000
								}
							}
						}
					}
					JOINT LeftShoulder
					{
						OFFSET 6.292450 5.785301 -0.669000
						CHANNELS 3 Xrotation Yrotation Zrotation
						JOINT LeftShoulder_split
						{
							OFFSET 6.292450 5.785301 -0.669000
							CHANNELS 3 Xrotation Yrotation Zrotation
							JOINT LeftArm
							{
								OFFSET 13.907140 -6.093903 1.965100
								CHANNELS 3 Xrotation Yrotation Zrotation
								JOINT LeftForeArm
								{
									OFFSET 34.140198 0.000000 0.000000
									CHANNELS 3 Xrotation Yrotation Zrotation
									JOINT LeftHand
									{
										OFFSET 40.960209 0.000000 0.000000
										CHANNELS 3 Xrotation Yrotation Zrotation
										JOINT LeftHandThumb1
										{
											OFFSET 10.006996 -7.170425 9.573125
											CHANNELS 3 Xrotation Yrotation Zrotation
											JOINT LeftHandThumb2
											{
												OFFSET 1.835007 -1.059448 1.059443
												CHANNELS 3 Xrotation Yrotation Zrotation
												JOINT LeftHandThumb3
												{
													OFFSET 2.112267 -1.219513 1.219518
													CHANNELS 3 Xrotation Yrotation Zrotation
													JOINT LeftHandThumb4
													{
														OFFSET 4.843811 -2.796570 2.796576
														CHANNELS 3 Xrotation Yrotation Zrotation
														End Site
														{
															OFFSET 0.000000 0.000000 0.000000
														}
													}
												}
											}
										}
										JOINT LeftHandIndex1
										{
											OFFSET 18.389847 -0.922348 4.596882
											CHANNELS 3 Xrotation Yrotation Zrotation
											JOINT LeftHandIndex2
											{
												OFFSET 4.711273 0.000000 0.000000
												CHANNELS 3 Xrotation Yrotation Zrotation
												JOINT LeftHandIndex3
												{
													OFFSET 2.886131 0.000000 0.000000
													CHANNELS 3 Xrotation Yrotation Zrotation
													JOINT LeftHandIndex4
													{
														OFFSET 6.145912 0.000000 0.000000
														CHANNELS 3 Xrotation Yrotation Zrotation
														End Site
														{
															OFFSET 0.000000 0.000000 0.000000
														}
													}
												}
											}
										}
										JOINT LeftHandMiddle1
										{
											OFFSET 18.013008 0.000000 0.000000
											CHANNELS 3 Xrotation Yrotation Zrotation
											JOINT LeftHandMiddle2
											{
												OFFSET 4.946693 0.000000 0.000000
												CHANNELS 3 Xrotation Yrotation Zrotation
												JOINT LeftHandMiddle3
												{
													OFFSET 3.342232 0.000000 0.000000
													CHANNELS 3 Xrotation Yrotation Zrotation
													JOINT LeftHandMiddle4
													{
														OFFSET 4.461754 0.000000 0.000000
														CHANNELS 3 Xrotation Yrotation Zrotation
														End Site
														{
															OFFSET 0.000000 0.000000 0.000000
														}
													}
												}
											}
										}
										JOINT LeftHandRing1
										{
											OFFSET 15.849892 -0.102921 -4.126150
											CHANNELS 3 Xrotation Yrotation Zrotation
											JOINT LeftHandRing2
											{
												OFFSET 3.527054 0.000000 0.000000
												CHANNELS 3 Xrotation Yrotation Zrotation
												JOINT LeftHandRing3
												{
													OFFSET 2.961098 0.000000 0.000000
													CHANNELS 3 Xrotation Yrotation Zrotation
													JOINT LeftHandRing4
													{
														OFFSET 4.927200 0.000000 0.000000
														CHANNELS 3 Xrotation Yrotation Zrotation
														End Site
														{
															OFFSET 0.000000 0.000000 0.000000
														}
													}
												}
											}
										}
										JOINT LeftHandPinky1
										{
											OFFSET 12.791824 -0.832031 -6.799156
											CHANNELS 3 Xrotation Yrotation Zrotation
											JOINT LeftHandPinky2
											{
												OFFSET 3.327133 0.000000 0.000000
												CHANNELS 3 Xrotation Yrotation Zrotation
												JOINT LeftHandPinky3
												{
													OFFSET 3.014900 0.000000 0.000000
													CHANNELS 3 Xrotation Yrotation Zrotation
													JOINT LeftHandPinky4
													{
														OFFSET 5.847786 0.000000 0.000000
														CHANNELS 3 Xrotation Yrotation Zrotation
														End Site
														{
															OFFSET 0.000000 0.000000 0.000000
														}
													}
												}
											}
										}
									}
								}
							}
						}
					}
					JOINT RightShoulder
					{
						OFFSET -6.292450 5.785301 -0.669000
						CHANNELS 3 Xrotation Yrotation Zrotation
						JOINT RightShoulder_split
						{
							OFFSET -6.292450 5.785301 -0.669000
							CHANNELS 3 Xrotation Yrotation Zrotation
							JOINT RightArm
							{
								OFFSET -13.907140 -6.093903 1.965100
								CHANNELS 3 Xrotation Yrotation Zrotation
								JOINT RightForeArm
								{
									OFFSET -34.140198 0.000000 0.000000
									CHANNELS 3 Xrotation Yrotation Zrotation
									JOINT RightHand
									{
										OFFSET -40.960209 0.000000 0.000000
										CHANNELS 3 Xrotation Yrotation Zrotation
										JOINT RightHandThumb1
										{
											OFFSET -10.007050 -7.170456 9.573117
											CHANNELS 3 Xrotation Yrotation Zrotation
											JOINT RightHandThumb2
											{
												OFFSET -1.835007 -1.059448 1.059443
												CHANNELS 3 Xrotation Yrotation Zrotation
												JOINT RightHandThumb3
												{
													OFFSET -2.112267 -1.219513 1.219518
													CHANNELS 3 Xrotation Yrotation Zrotation
													JOINT RightHandThumb4
													{
														OFFSET -4.843834 -2.796585 2.796590
														CHANNELS 3 Xrotation Yrotation Zrotation
														End Site
														{
															OFFSET 0.000000 0.000000 0.000000
														}
													}
												}
											}
										}
										JOINT RightHandIndex1
										{
											OFFSET -18.389870 -0.922424 4.596786
											CHANNELS 3 Xrotation Yrotation Zrotation
											JOINT RightHandIndex2
											{
												OFFSET -4.711273 0.000000 0.000000
												CHANNELS 3 Xrotation Yrotation Zrotation
												JOINT RightHandIndex3
												{
													OFFSET -2.886131 0.000000 0.000000
													CHANNELS 3 Xrotation Yrotation Zrotation
													JOINT RightHandIndex4
													{
														OFFSET -6.145920 0.000000 0.000000
														CHANNELS 3 Xrotation Yrotation Zrotation
														End Site
														{
															OFFSET 0.000000 0.000000 0.000000
														}
													}
												}
											}
										}
										JOINT RightHandMiddle1
										{
											OFFSET -18.013008 0.000000 0.000000
											CHANNELS 3 Xrotation Yrotation Zrotation
											JOINT RightHandMiddle2
											{
												OFFSET -4.946693 0.000000 0.000000
												CHANNELS 3 Xrotation Yrotation Zrotation
												JOINT RightHandMiddle3
												{
													OFFSET -3.342232 0.000000 0.000000
													CHANNELS 3 Xrotation Yrotation Zrotation
													JOINT RightHandMiddle4
													{
														OFFSET -4.461754 0.000000 0.000000
														CHANNELS 3 Xrotation Yrotation Zrotation
														End Site
														{
															OFFSET 0.000000 0.000000 0.000000
														}
													}
												}
											}
										}
										JOINT RightHandRing1
										{
											OFFSET -15.849876 -0.102936 -4.126237
											CHANNELS 3 Xrotation Yrotation Zrotation
											JOINT RightHandRing2
											{
												OFFSET -3.527054 0.000000 0.000000
												CHANNELS 3 Xrotation Yrotation Zrotation
												JOINT RightHandRing3
												{
													OFFSET -2.961098 0.000000 0.000000
													CHANNELS 3 Xrotation Yrotation Zrotation
													JOINT RightHandRing4
													{
														OFFSET -4.927200 0.000000 0.000000
														CHANNELS 3 Xrotation Yrotation Zrotation
														End Site
														{
															OFFSET 0.000000 0.000000 0.000000
														}
													}
												}
											}
										}
										JOINT RightHandPinky1
										{
											OFFSET -12.791786 -0.832077 -6.799222
											CHANNELS 3 Xrotation Yrotation Zrotation
											JOINT RightHandPinky2
											{
												OFFSET -3.327133 0.000000 0.000000
												CHANNELS 3 Xrotation Yrotation Zrotation
												JOINT RightHandPinky3
												{
													OFFSET -3.014900 0.000000 0.000000
													CHANNELS 3 Xrotation Yrotation Zrotation
													JOINT RightHandPinky4
													{
														OFFSET -5.847786 0.000000 0.000000
														CHANNELS 3 Xrotation Yrotation Zrotation
														End Site
														{
															OFFSET 0.000000 0.000000 0.000000
														}
													}
												}
											}
										}
									}
								}
							}
						}
					}
				}
			}
		}
	}
	JOINT LeftUpLeg
	{
		OFFSET 13.026900 -6.336304 -1.092800
		CHANNELS 3 Xrotation Yrotation Zrotation
		JOINT LeftLeg
		{
			OFFSET 0.524474 -46.096886 9.782700
			CHANNELS 3 Xrotation Yrotation Zrotation
			JOINT LeftFoot
			{
				OFFSET -0.524474 -53.427422 -12.948200
				CHANNELS 3 Xrotation Yrotation Zrotation
				JOINT LeftToeBase
				{
					OFFSET 0.192200 -14.009700 16.364100
					CHANNELS 3 Xrotation Yrotation Zrotation
					JOINT LeftToe_End
					{
						OFFSET -1.784700 -0.561700 9.474800
						CHANNELS 3 Xrotation Yrotation Zrotation
						End Site
						{
							OFFSET 0.000000 0.000000 0.000000
						}
					}
				}
			}
		}
	}
	JOINT RightUpLeg
	{
		OFFSET -12.883000 -6.336304 -1.092800
		CHANNELS 3 Xrotation Yrotation Zrotation
		JOINT RightLeg
		{
			OFFSET -0.524587 -46.096825 9.782800
			CHANNELS 3 Xrotation Yrotation Zrotation
			JOINT RightFoot
			{
				OFFSET 0.524587 -53.427383 -12.948300
				CHANNELS 3 Xrotation Yrotation Zrotation
				JOINT RightToeBase
				{
					OFFSET -0.192200 -14.009700 16.364100
					CHANNELS 3 Xrotation Yrotation Zrotation
					JOINT RightToe_End
					{
						OFFSET 1.784700 -0.561700 9.474800
						CHANNELS 3 Xrotation Yrotation Zrotation
						End Site
						{
							OFFSET 0.000000 0.000000 0.000000
						}
					}
				}
			}
		}
	}
}
MOTION
Frames: 4
Frame Time: 0.016667
-0.119618 117.116875 0.853285 1.893908 -2.213563 -0.051692 2.071510 0.296347 0.807418 3.430435 -0.015269 0.185037 0.000000 0.000000 0.000000 3.430503 0.005499 0.178976 -3.527216 -0.011364 -0.032778 -2.723273 -0.261569 0.276205 -0.000000 0.000000 -0.000000 0.742837 8.952362 -13.053725 0.000000 0.000000 0.000000 10.737610 -6.254793 -54.002614 0.000006 -32.994246 0.000009 3.018194 -1.471486 -4.081455 -0.482875 3.821569 13.866307 21.372738 38.839843 0.020887 -0.475016 -2.422447 17.057002 0.000003 0.000000 0.000001 1.076659 5.650977 -31.107082 2.579645 4.853689 -55.959030 0.000003 -0.001535 0.014995 0.000001 0.000000 -0.000001 2.297561 7.098882 -41.286608 3.978838 5.544428 -71.308008 -0.000000 -0.000577 0.005644 -0.000000 -0.000001 0.000000 2.297557 7.098883 -41.286584 3.978840 5.544424 -71.308029 0.000000 -0.000582 0.005644 -0.000000 0.000002 -0.000000 2.296095 7.100168 -41.286403 3.978850 5.544431 -71.308042 -0.000000 -0.000580 0.005643 -0.000000 0.000001 0.000001 1.078069 -8.352865 11.371668 0.000000 0.000000 0.000000 3.407867 18.890954 61.317327 -0.000004 23.538777 0.000016 1.182694 -2.960230 -1.406727 -5.104757 0.227803 -17.972077 16.981324 -29.890899 7.725559 -6.337741 -28.133426 -4.845025 0.000001 -0.000001 0.000002 0.285283 -3.752859 14.876256 3.775971 -4.573218 79.081276 0.158024 1.204122 -14.952700 -0.000001 -0.000000 0.000000 1.456650 -5.863608 32.031620 4.654526 -4.657168 89.967354 0.158027 1.204134 -14.952705 0.000000 -0.000000 0.000000 1.456649 -5.863607 32.031606 4.654523 -4.657173 89.967361 0.158027 1.204139 -14.952703 0.000000 0.000000 -0.000000 1.456651 -5.863605 32.031620 4.654519 -4.657170 89.967361 0.158026 1.204131 -14.952706 0.000000 0.000001 -0.000000 -6.964121 -4.920125 9.756237 13.139574 0.009752 -1.548191 -5.743869 14.531245 -8.778309 -0.003555 -0.000003 0.000001 0.000000 -0.000000 -0.000000 -6.359351 -4.987561 -9.226663 13.944658 -0.292741 0.064277 -8.086569 -10.807379 7.935530 0.109675 -0.000005 0.000002 -0.000000 -0.000001 -0.000000 
-0.212450 116.989090 0.785172 1.872889 -2.368554 0.057981 2.291587 0.004658 0.759762 3.107403 -0.084774 0.120758 0.000000 0.000000 0.000000 3.107845 -0.065907 0.115675 -3.226255 0.031549 -0.023640 -2.059490 0.093461 0.433889 0.000000 0.000000 -0.000000 0.736512 8.806729 -13.031569 0.000000 0.000000 0.000000 10.933033 -6.745926 -54.051026 0.000002 -32.945284 -0.000011 3.215430 -1.441562 -4.145363 -1.226166 4.012610 13.215945 20.501615 38.197778 1.391557 -0.101262 -3.052176 17.764140 -0.000001 0.000000 0.000003 1.051747 5.612608 -30.821239 2.451670 4.765045 -54.432786 0.001622 0.137966 -1.346392 0.000002 0.000000 0.000002 2.190043 7.000229 -40.472733 3.756127 5.464388 -68.986543 0.001900 0.149383 -1.457812 0.000000 -0.000002 -0.000000 2.198441 7.006917 -40.576289 3.751190 5.462497 -68.934770 0.001769 0.144123 -1.406543 0.000000 0.000000 0.000000 2.205385 7.014866 -40.679657 3.756128 5.464389 -68.986536 0.001643 0.138865 -1.355271 0.000000 0.000002 -0.000000 1.091567 -8.197192 11.485085 0.000000 0.000000 0.000000 3.504178 18.923109 61.185996 -0.000001 23.701527 0.000033 1.551636 -2.868875 -1.163894 -5.642957 -0.147089 -17.426121 16.936670 -29.156957 6.578060 -5.748132 -26.936425 -5.700910 0.000000 0.000001 0.000000 0.293425 -3.774304 15.343537 3.548777 -4.523630 76.216988 0.116326 1.035479 -12.819107 -0.000000 0.000000 0.000001 1.392276 -5.779179 31.586749 4.375145 -4.648641 86.524365 0.114420 1.027074 -12.713272 0.000000 -0.000001 0.000000 1.398785 -5.785311 31.693177 4.370823 -4.648383 86.471096 0.115369 1.031267 -12.766184 0.000000 0.000001 0.000000 1.399736 -5.794867 31.799025 4.375154 -4.648642 86.524379 0.116324 1.035478 -12.819112 -0.000000 0.000001 0.000000 -8.183184 -5.311246 9.648753 15.055159 -0.046759 -1.512797 -4.594856 14.617860 -9.356435 -2.373247 0.000002 0.000001 0.000000 -0.000000 -0.000000 -6.723997 -4.972042 -9.330406 14.499216 -0.137778 0.071486 -8.308095 -10.753293 7.862407 -0.200953 -0.000004 -0.000001 -0.000000 0.000001 0.000000 
-0.455988 116.814537 0.726658 1.851945 -2.504076 0.192240 2.560425 -0.347695 0.694228 2.747829 -0.169165 0.053065 0.000000 0.000000 0.000000 2.748702 -0.152293 0.049086 -2.889078 0.082214 -0.012975 -1.319717 0.514194 0.602907 0.000000 -0.000000 -0.000000 0.729837 8.654327 -13.018121 0.000000 0.000000 0.000000 11.156656 -7.294850 -54.080656 -0.000001 -32.921047 -0.000009 3.429485 -1.421113 -4.175590 -2.021790 4.232564 12.518351 19.606072 37.444504 2.843479 0.282571 -3.726812 18.491226 -0.000001 -0.000001 -0.000001 1.025033 5.570818 -30.510127 2.320111 4.668505 -52.832968 0.006748 0.281396 -2.747081 -0.000001 0.000001 0.000001 2.077962 6.892799 -39.613229 3.527048 5.371184 -66.560726 0.007858 0.303669 -2.964556 -0.000000 0.000000 0.000000 2.094708 6.906832 -39.824320 3.517182 5.366918 -66.455234 0.007313 0.292958 -2.860006 -0.000000 -0.000001 0.000000 2.110011 6.922066 -40.035236 3.527047 5.371200 -66.560699 0.006788 0.282270 -2.755452 0.000000 0.000000 -0.000000 1.096790 -8.002338 11.568715 0.000000 0.000000 0.000000 3.614128 18.945283 61.044638 0.000009 23.957210 0.000007 1.916265 -2.796679 -0.913610 -6.220036 -0.561322 -16.846213 16.880374 -28.337799 5.350608 -5.130521 -25.610254 -6.616670 0.000002 0.000000 -0.000001 0.301840 -3.796158 15.831043 3.306242 -4.457341 73.119955 0.078734 0.853617 -10.538794 -0.000001 0.000001 -0.000000 1.323350 -5.686534 31.092869 4.074452 -4.620652 82.804289 0.075491 0.836019 -10.319083 0.000000 0.000001 0.000000 1.336520 -5.699517 31.313784 4.065553 -4.619527 82.693756 0.077101 0.844827 -10.428941 -0.000000 -0.000000 0.000000 1.339913 -5.718441 31.533740 4.074454 -4.620648 82.804296 0.078730 0.853624 -10.538795 0.000000 0.000003 0.000000 -9.877268 -4.997028 9.761519 17.369777 -0.119685 -1.480116 -2.845070 13.809975 -10.226578 -5.458061 0.000000 0.000000 0.000000 0.000001 0.000000 -7.181692 -4.926189 -9.387306 15.276505 0.015711 0.087556 -8.672073 -10.735236 7.700336 -0.267550 0.000017 -0.000001 0.000000 -0.000001 0.000000 
-0.697057 116.239159 0.686970 1.831486 -2.635563 0.095908 2.856697 -0.715699 0.857817 2.373875 -0.260962 -0.016101 0.000000 0.000000 0.000000 2.375219 -0.246128 -0.018902 -2.534351 0.136653 -0.001104 -0.540679 0.969614 0.774559 0.000000 -0.000000 -0.000000 0.723121 8.496001 -13.005184 0.000000 0.000000 0.000000 11.389995 -7.878153 -54.103977 0.000000 -32.909026 -0.000019 3.676872 -1.401122 -4.194150 -2.847529 4.478022 11.792754 18.719745 36.603855 4.328824 0.658170 -4.423257 19.224643 -0.000001 -0.000001 -0.000001 0.997335 5.526773 -30.182930 2.187632 4.565369 -51.187193 0.015559 0.427132 -4.171891 -0.000001 -0.000004 -0.000001 1.964219 6.778785 -38.725236 3.296137 5.265520 -64.069831 0.018083 0.460448 -4.497933 -0.000000 -0.000000 -0.000000 1.989067 6.800761 -39.046300 3.281448 5.258384 -63.909479 0.016826 0.444189 -4.338840 -0.000000 0.000003 0.000000 2.012544 6.823826 -39.367195 3.296139 5.265522 -64.069825 0.015617 0.427943 -4.179753 -0.000000 0.000000 -0.000000 1.096977 -7.781050 11.642711 0.000000 0.000000 0.000000 3.743083 18.979042 60.878869 0.000009 24.271408 -0.000025 2.271881 -2.732254 -0.657000 -6.820224 -1.005230 -16.249155 16.817220 -27.461897 4.075784 -4.497548 -24.206307 -7.576605 -0.000000 0.000005 0.000001 0.310435 -3.818223 16.330810 3.056565 -4.374044 69.877808 0.047341 0.663073 -8.167503 0.000001 0.000001 0.000001 1.252318 -5.588264 30.568156 3.762432 -4.570592 78.911505 0.043502 0.635757 -7.828935 -0.000000 -0.000002 -0.000000 1.272039 -5.608662 30.908546 3.748861 -4.567930 78.741139 0.045402 0.649412 -7.998218 0.000000 -0.000001 0.000000 1.278703 -5.636921 31.247648 3.762431 -4.570596 78.911491 0.047341 0.663065 -8.167504 0.000000 0.000000 -0.000000 -13.656622 -4.426459 9.538335 22.941323 0.528582 -1.415196 -1.047182 12.376299 -9.131555 -10.826739 -0.000003 0.000002 -0.000000 -0.000001 0.000000 -8.151361 -4.796122 -9.282754 17.105440 0.252250 0.139182 -9.550912 -10.820012 7.512307 -0.120336 0.000003 0.000001 -0.000000 -0.000002 -0.000000 
